<svg xmlns="http://www.w3.org/2000/svg" xmlns:xlink="http://www.w3.org/1999/xlink" xml:space="preserve" version="1.1" style="shape-rendering:geometricPrecision;text-rendering:geometricPrecision;image-rendering:optimizeQuality;" viewBox="0 0 362 497.5" x="0px" y="0px" fill-rule="evenodd" clip-rule="evenodd"><defs><style type="text/css">
   
    .fil0 {fill:black;fill-rule:nonzero}
   
  </style></defs><g><path class="fil0" d="M298 296l0 -127c0,-64 -53,-117 -117,-117 -64,0 -117,53 -117,117l0 127c0,6 -5,10 -10,10l-22 0c-7,0 -12,5 -12,12 0,6 5,11 12,11l298 0c7,0 12,-5 12,-11 0,-7 -5,-12 -12,-12l-22 0c-5,0 -10,-4 -10,-10zm-163 -256c3,-22 23,-40 46,-40 23,0 43,18 46,40 53,19 91,70 91,129l0 117 12 0c18,0 32,14 32,32 0,17 -14,31 -32,31l-89 0c-6,28 -31,49 -60,49 -29,0 -54,-21 -60,-49l-89 0c-18,0 -32,-14 -32,-31 0,-18 14,-32 32,-32l12 0 0 -117c0,-59 38,-110 91,-129zm69 -6c-4,-8 -13,-14 -23,-14 -10,0 -19,6 -23,14 7,-1 15,-2 23,-2 8,0 16,1 23,2zm-62 315c5,17 21,29 39,29 18,0 34,-12 39,-29l-78 0z"/></g><text x="0" y="413" fill="#000000" font-size="5px" font-weight="bold" font-family="'Helvetica Neue', Helvetica, Arial-Unicode, Arial, Sans-serif">Created by Saifurrijal</text><text x="0" y="418" fill="#000000" font-size="5px" font-weight="bold" font-family="'Helvetica Neue', Helvetica, Arial-Unicode, Arial, Sans-serif">from the Noun Project</text></svg>