<svg xmlns="http://www.w3.org/2000/svg" xmlns:xlink="http://www.w3.org/1999/xlink" viewBox="0 0 100 125" version="1.1" x="0px" y="0px"><title>bookmarks</title><desc>Created with Sketch.</desc><g stroke="none" stroke-width="1" fill="none" fill-rule="evenodd"><g fill="#000000"><path d="M23.2307692,3.84615385 L77.0769231,3.84615385 L77.0769231,92.3076923 C77.0769231,92.3076923 64.659261,82.1986764 51.4358974,71.7352415 L50.1538462,70.706619 L48.8717949,71.7352415 C40.3474953,78.3705953 23.2307692,92.3050425 23.2307692,92.3076923 L23.2307692,3.84615385 L23.2307692,3.84615385 L23.2307692,3.84615385 Z M19.3846154,100 L21.9487179,97.9166667 C36.9208655,85.629885 50.1538453,74.7919771 50.1538462,75 C50.1538453,74.7919771 68.652366,89.9447415 78.3589744,97.9166667 L80.9230769,100 L80.9230769,96.875 L80.9230769,1.04166667 L80.9230769,0 L79.6410256,0 L20.6666667,0 L19.3846154,0 L19.3846154,1.04166667 L19.3846154,96.875 L19.3846154,100 L19.3846154,100 Z M15.5384615,6.93202147 L15.5384615,3.84615385 L5.15384615,3.84615385 L4,3.84615385 L4,4.87477639 L4,89.2218247 L4,92.3076923 L6.30769231,90.2504472 C9.78995725,87.6764206 12.7614016,85.2998987 15.5384615,83.0500894 L15.5384615,78.9355993 C9.17642189,84.5125249 7.21229399,86.0835917 7.46153846,86.1359571 L7.46153846,6.93202147 L15.5384615,6.93202147 L15.5384615,6.93202147 Z M84.7692308,6.93202147 L84.7692308,3.84615385 L95.1538462,3.84615385 L96.3076923,3.84615385 L96.3076923,4.87477639 L96.3076923,89.2218247 L96.3076923,92.3076923 L94,90.2504472 C90.5177351,87.6764206 87.5462907,85.2998987 84.7692308,83.0500894 L84.7692308,78.9355993 C91.1312704,84.5125249 93.0953983,86.0835917 92.8461538,86.1359571 L92.8461538,6.93202147 L84.7692308,6.93202147 L84.7692308,6.93202147 Z"/></g></g><text x="0" y="115" fill="#000000" font-size="5px" font-weight="bold" font-family="'Helvetica Neue', Helvetica, Arial-Unicode, Arial, Sans-serif">Created by Rauan</text><text x="0" y="120" fill="#000000" font-size="5px" font-weight="bold" font-family="'Helvetica Neue', Helvetica, Arial-Unicode, Arial, Sans-serif">from the Noun Project</text></svg>