<svg xmlns="http://www.w3.org/2000/svg" xmlns:xlink="http://www.w3.org/1999/xlink" version="1.1" x="0px" y="0px" viewBox="0 0 32 40" style="enable-background:new 0 0 32 32;" xml:space="preserve"><g><g><path d="M11.52,24.85C11.52,24.85,11.52,24.85,11.52,24.85c-0.17,0-0.32-0.08-0.41-0.21L8.99,21.6H5.86    c-0.84,0-1.52-0.74-1.52-1.65V8.41c0-0.91,0.68-1.65,1.52-1.65h20.28c0.84,0,1.52,0.74,1.52,1.65v11.55    c0,0.91-0.68,1.65-1.52,1.65H14.09l-2.16,3.04C11.83,24.77,11.68,24.85,11.52,24.85z M5.86,7.76c-0.28,0-0.52,0.3-0.52,0.65v11.55    c0,0.35,0.24,0.65,0.52,0.65h3.39c0.16,0,0.32,0.08,0.41,0.21l1.86,2.67l1.9-2.67c0.09-0.13,0.25-0.21,0.41-0.21h12.31    c0.28,0,0.52-0.3,0.52-0.65V8.41c0-0.35-0.24-0.65-0.52-0.65H5.86z"/></g></g><g><g><g><path d="M10.17,16.49c-1.35,0-2.44-1.09-2.44-2.44s1.09-2.44,2.44-2.44c1.35,0,2.44,1.09,2.44,2.44S11.52,16.49,10.17,16.49z      M10.17,12.61c-0.79,0-1.44,0.65-1.44,1.44s0.65,1.44,1.44,1.44c0.79,0,1.44-0.65,1.44-1.44S10.97,12.61,10.17,12.61z"/></g></g></g><g><g><g><path d="M16,16.49c-1.35,0-2.44-1.09-2.44-2.44s1.09-2.44,2.44-2.44s2.44,1.09,2.44,2.44S17.35,16.49,16,16.49z M16,12.61     c-0.79,0-1.44,0.65-1.44,1.44s0.65,1.44,1.44,1.44s1.44-0.65,1.44-1.44S16.79,12.61,16,12.61z"/></g></g></g><g><g><g><path d="M21.83,16.49c-1.35,0-2.44-1.09-2.44-2.44s1.09-2.44,2.44-2.44c1.35,0,2.44,1.09,2.44,2.44S23.17,16.49,21.83,16.49z      M21.83,12.61c-0.79,0-1.44,0.65-1.44,1.44s0.65,1.44,1.44,1.44c0.79,0,1.44-0.65,1.44-1.44S22.62,12.61,21.83,12.61z"/></g></g></g><text x="0" y="47" fill="#000000" font-size="5px" font-weight="bold" font-family="'Helvetica Neue', Helvetica, Arial-Unicode, Arial, Sans-serif">Created by Gilbert Natanael</text><text x="0" y="52" fill="#000000" font-size="5px" font-weight="bold" font-family="'Helvetica Neue', Helvetica, Arial-Unicode, Arial, Sans-serif">from the Noun Project</text></svg>