<svg xmlns="http://www.w3.org/2000/svg" xmlns:xlink="http://www.w3.org/1999/xlink" version="1.1" x="0px" y="0px" viewBox="0 0 64 80" enable-background="new 0 0 64 64" xml:space="preserve"><g><path d="M36.962,62h-9.924l-1.575-7.871c-1.565-0.461-3.07-1.083-4.491-1.857l-6.676,4.45l-7.017-7.017l4.449-6.677   c-0.773-1.421-1.396-2.926-1.856-4.49L2,36.963L2,27.037l7.872-1.575c0.46-1.564,1.083-3.069,1.856-4.49l-4.449-6.677l7.017-7.017   l6.676,4.45c1.421-0.773,2.927-1.396,4.491-1.857L27.038,2h9.925l1.573,7.871c1.564,0.461,3.071,1.083,4.492,1.857l6.675-4.45   l7.02,7.017l-4.45,6.676c0.771,1.418,1.395,2.924,1.856,4.491L62,27.037v9.926l-7.871,1.575c-0.462,1.566-1.084,3.072-1.856,4.49   l4.45,6.676l-7.018,7.019l-6.677-4.45c-1.422,0.774-2.928,1.396-4.49,1.856L36.962,62z M28.678,60h6.646l1.496-7.476l0.603-0.16   c1.811-0.48,3.543-1.196,5.148-2.129l0.538-0.313l6.341,4.227l4.699-4.7l-4.227-6.341l0.313-0.539   c0.931-1.6,1.647-3.332,2.13-5.148l0.16-0.601L60,35.323v-6.646l-7.475-1.496l-0.16-0.601c-0.483-1.818-1.2-3.55-2.13-5.149   l-0.313-0.539l4.227-6.341l-4.699-4.699l-6.341,4.227l-0.538-0.313c-1.604-0.932-3.338-1.648-5.151-2.13l-0.602-0.16L35.322,4   h-6.645l-1.495,7.475l-0.602,0.16c-1.813,0.481-3.546,1.198-5.15,2.13l-0.539,0.313l-6.341-4.227L9.852,14.55l4.226,6.341   l-0.313,0.539c-0.932,1.604-1.648,3.336-2.129,5.149l-0.16,0.602L4,28.677L4,35.323l7.475,1.496l0.16,0.602   c0.481,1.813,1.197,3.545,2.129,5.149l0.313,0.539L9.852,49.45l4.699,4.699l6.341-4.227l0.539,0.313   c1.604,0.932,3.336,1.648,5.15,2.13l0.602,0.16L28.678,60z"/><path d="M32,46.81c-8.166,0-14.809-6.644-14.809-14.81S23.834,17.19,32,17.19c8.166,0,14.81,6.644,14.81,14.81   S40.166,46.81,32,46.81z M32,19.19c-7.063,0-12.809,5.747-12.809,12.81S24.937,44.81,32,44.81c7.063,0,12.81-5.747,12.81-12.81   S39.063,19.19,32,19.19z"/></g><text x="0" y="79" fill="#000000" font-size="5px" font-weight="bold" font-family="'Helvetica Neue', Helvetica, Arial-Unicode, Arial, Sans-serif">Created by Denicon</text><text x="0" y="84" fill="#000000" font-size="5px" font-weight="bold" font-family="'Helvetica Neue', Helvetica, Arial-Unicode, Arial, Sans-serif">from the Noun Project</text></svg>