<svg xmlns="http://www.w3.org/2000/svg" viewBox="0 0 100 125" x="0px" y="0px"><path d="m23.38,81.19h-9.01c-.58,0-1.04.47-1.04,1.04v10.73c0,.58.47,1.04,1.04,1.04h9.01c.58,0,1.04-.47,1.04-1.04v-10.73c0-.58-.47-1.04-1.04-1.04Zm-1.04,10.73h-6.93v-8.64h6.93v8.64Z"/><path d="m44.75,68.21h-9.01c-.58,0-1.04.47-1.04,1.04v23.71c0,.58.47,1.04,1.04,1.04h9.01c.58,0,1.04-.47,1.04-1.04v-23.71c0-.58-.47-1.04-1.04-1.04Zm-1.04,23.71h-6.93v-21.62h6.93v21.62Z"/><path d="m66.13,54.85h-9.01c-.58,0-1.04.47-1.04,1.04v37.07c0,.58.47,1.04,1.04,1.04h9.01c.58,0,1.04-.47,1.04-1.04v-37.07c0-.58-.47-1.04-1.04-1.04Zm-1.04,37.07h-6.93v-34.98h6.93v34.98Z"/><path d="m87.5,43.74h-9.01c-.58,0-1.04.47-1.04,1.04v48.17c0,.58.47,1.04,1.04,1.04h9.01c.58,0,1.04-.47,1.04-1.04v-48.17c0-.58-.47-1.04-1.04-1.04Zm-1.04,48.17h-6.93v-46.09h6.93v46.09Z"/><path d="m87.51,6h-17.69c-.42,0-.8.25-.96.64-.16.39-.07.84.23,1.14l5,5-24.01,24.01-9.24-9.24c-.41-.41-1.07-.41-1.47,0l-27.61,27.61c-.2.2-.31.46-.31.74s.11.54.31.74l6.37,6.37c.2.2.47.31.74.31s.53-.1.74-.31l20.5-20.5,9.24,9.24c.41.41,1.07.41,1.47,0l31.12-31.12,4.84,4.84c.3.3.75.39,1.14.23.39-.16.64-.54.64-.96V7.04c0-.58-.47-1.04-1.04-1.04Zm-1.04,16.21l-3.8-3.8c-.41-.41-1.07-.41-1.47,0l-31.12,31.12-9.24-9.24c-.41-.41-1.07-.41-1.47,0l-20.5,20.5-4.9-4.9,26.13-26.13,9.24,9.24c.41.41,1.07.41,1.47,0l25.48-25.48c.41-.41.41-1.07,0-1.47l-3.96-3.96h14.13v14.13Z"/><text x="0" y="115" fill="#000000" font-size="5px" font-weight="bold" font-family="'Helvetica Neue', Helvetica, Arial-Unicode, Arial, Sans-serif">Created by Langtik</text><text x="0" y="120" fill="#000000" font-size="5px" font-weight="bold" font-family="'Helvetica Neue', Helvetica, Arial-Unicode, Arial, Sans-serif">from the Noun Project</text></svg>