<svg xmlns="http://www.w3.org/2000/svg" xmlns:xlink="http://www.w3.org/1999/xlink" version="1.1" x="0px" y="0px" viewBox="0 0 64 80" style="enable-background:new 0 0 64 64;" xml:space="preserve"><title>Home</title><path d="M53.3134,64H38.7811c-0.5527,0-1-0.4473-1-1V42.6885h-11.562V63c0,0.5527-0.4478,1-1,1H10.6879c-0.5522,0-1-0.4473-1-1V33  h-8.688c-0.4043,0-0.769-0.2432-0.9238-0.6172s-0.0693-0.8037,0.2168-1.0898l31-31c0.3906-0.3906,1.0234-0.3906,1.4141,0l31,31  c0.2861,0.2861,0.3721,0.7158,0.2168,1.0898C63.7694,32.7568,63.4042,33,62.9999,33h-8.6865v30  C54.3134,63.5527,53.8661,64,53.3134,64z M39.7811,62h12.5322V32c0-0.5522,0.4473-1,1-1h7.2725L31.9999,2.4141L3.414,31h7.2739  c0.5522,0,1,0.4478,1,1v30h12.5312V41.6885c0-0.5527,0.4478-1,1-1h13.562c0.5527,0,1,0.4473,1,1V62z"/><text x="0" y="79" fill="#000000" font-size="5px" font-weight="bold" font-family="'Helvetica Neue', Helvetica, Arial-Unicode, Arial, Sans-serif">Created by Mooms</text><text x="0" y="84" fill="#000000" font-size="5px" font-weight="bold" font-family="'Helvetica Neue', Helvetica, Arial-Unicode, Arial, Sans-serif">from the Noun Project</text></svg>