<svg xmlns="http://www.w3.org/2000/svg" viewBox="0 0 100 125" x="0px" y="0px"><g data-name="Layer 8"><path d="M86.566,79.334a11.41,11.41,0,0,1-10.175-6.215l-7.1-13.838H30.711l-7.1,13.836a11.411,11.411,0,0,1-10.176,6.217,11,11,0,0,1-3.929-.691A11.48,11.48,0,0,1,2.288,65.326l8.177-35.773a11.447,11.447,0,0,1,15.06-8.2l8.569,3.139c.125.049.25.1.379.158H65.526c.121-.055.232-.1.332-.14l8.612-3.155a11.447,11.447,0,0,1,15.065,8.2l8.177,35.773A11.483,11.483,0,0,1,90.49,78.645,11,11,0,0,1,86.566,79.334ZM28.934,56.372H71.065l7.913,15.416a8.511,8.511,0,0,0,7.588,4.637,8.137,8.137,0,0,0,2.908-.507l.011,0a8.567,8.567,0,0,0,5.39-9.941L86.7,30.2A8.536,8.536,0,0,0,75.466,24.09l-8.559,3.136a1.706,1.706,0,0,0-.279.127l-.346.208H33.718l-.346-.208a1.945,1.945,0,0,0-.312-.14l-8.531-3.124A8.535,8.535,0,0,0,13.3,30.2L5.125,65.974a8.567,8.567,0,0,0,5.39,9.941,8.175,8.175,0,0,0,2.919.51,8.509,8.509,0,0,0,7.588-4.639Z"/><path d="M73.688,39a5.3,5.3,0,1,1,5.3-5.3A5.3,5.3,0,0,1,73.688,39Zm0-7.683A2.387,2.387,0,1,0,76.075,33.7,2.39,2.39,0,0,0,73.688,31.315Z"/><path d="M66.005,46.681a5.3,5.3,0,1,1,5.3-5.3A5.3,5.3,0,0,1,66.005,46.681Zm0-7.683a2.387,2.387,0,1,0,2.387,2.387A2.389,2.389,0,0,0,66.005,39Z"/><path d="M81.371,46.681a5.3,5.3,0,1,1,5.3-5.3A5.3,5.3,0,0,1,81.371,46.681Zm0-7.683a2.387,2.387,0,1,0,2.387,2.387A2.39,2.39,0,0,0,81.371,39Z"/><path d="M73.688,54.364a5.3,5.3,0,1,1,5.3-5.3A5.3,5.3,0,0,1,73.688,54.364Zm0-7.683a2.387,2.387,0,1,0,2.387,2.387A2.39,2.39,0,0,0,73.688,46.681Z"/><path d="M30.22,52.443H20.933V46.028H14.518V36.742h6.415V30.327H30.22v6.415h6.415v9.286H30.22Zm-6.378-2.909H27.31V43.119h6.416V39.651H27.31V33.236H23.842v6.415H17.427v3.468h6.415Z"/></g><text x="0" y="115" fill="#000000" font-size="5px" font-weight="bold" font-family="'Helvetica Neue', Helvetica, Arial-Unicode, Arial, Sans-serif">Created by Fauzi Ismail</text><text x="0" y="120" fill="#000000" font-size="5px" font-weight="bold" font-family="'Helvetica Neue', Helvetica, Arial-Unicode, Arial, Sans-serif">from the Noun Project</text></svg>