<svg xmlns="http://www.w3.org/2000/svg" xmlns:xlink="http://www.w3.org/1999/xlink" version="1.1" x="0px" y="0px" viewBox="0 0 100 125" enable-background="new 0 0 100 100" xml:space="preserve"><g><path d="M14.277,79.268h71.445c1.717-0.037,3.252-1.069,3.928-2.653c0.689-1.614,0.344-3.48-0.873-4.747   c-6.037-6.269-10.305-15.544-11.576-24.513c-1.885-13.297-4.012-34.144-22.963-36.099v-0.933c0-2.416-1.959-4.374-4.375-4.374   c-2.417,0-4.375,1.958-4.375,4.374v0.935c-18.797,1.969-20.905,22.812-22.774,36.1c-1.262,8.974-5.52,18.253-11.505,24.524   c-1.209,1.266-1.546,3.13-0.858,4.74C11.028,78.203,12.566,79.23,14.277,79.268z"/><path d="M50,94.051c6.502,0,11.774-5.271,11.774-11.773H38.227C38.227,88.779,43.498,94.051,50,94.051z"/></g><text x="0" y="115" fill="#000000" font-size="5px" font-weight="bold" font-family="'Helvetica Neue', Helvetica, Arial-Unicode, Arial, Sans-serif">Created by Luca Trinchero</text><text x="0" y="120" fill="#000000" font-size="5px" font-weight="bold" font-family="'Helvetica Neue', Helvetica, Arial-Unicode, Arial, Sans-serif">from the Noun Project</text></svg>