<svg xmlns="http://www.w3.org/2000/svg" viewBox="0 0 24 30" x="0px" y="0px"><path d="M3.3207,16.9509a1,1,0,0,1,.09.816l-.7786,2.3358a1,1,0,0,0,1.2649,1.2649l2.3358-.7786a1,1,0,0,1,.816.09,10.023,10.023,0,1,0-3.7284-3.7284ZM17,11a1,1,0,1,1-1,1A1,1,0,0,1,17,11Zm-5,0a1,1,0,1,1-1,1A1,1,0,0,1,12,11ZM7,11a1,1,0,1,1-1,1A1,1,0,0,1,7,11Z"/><text x="0" y="39" fill="#000000" font-size="5px" font-weight="bold" font-family="'Helvetica Neue', Helvetica, Arial-Unicode, Arial, Sans-serif">Created by Royyan Wijaya</text><text x="0" y="44" fill="#000000" font-size="5px" font-weight="bold" font-family="'Helvetica Neue', Helvetica, Arial-Unicode, Arial, Sans-serif">from the Noun Project</text></svg>