<svg xmlns="http://www.w3.org/2000/svg" xmlns:xlink="http://www.w3.org/1999/xlink" viewBox="0 0 100 125" version="1.1" x="0px" y="0px"><title>53</title><desc>Created with Sketch.</desc><g stroke="none" stroke-width="1" fill="none" fill-rule="evenodd"><g fill="#000000"><path d="M99.3478946,48.5736376 L51.309073,5.50125215 C50.5640586,4.83291595 49.4356529,4.83330817 48.6908346,5.50105604 L0.652013056,48.5736376 C0.047019753,49.1160724 -0.160854769,49.975614 0.129581238,50.7345521 C0.420017245,51.4936863 1.14855861,51.9947423 1.96103422,51.9947423 L12.430458,51.9947423 L12.430458,93.303136 C12.430458,94.3862407 13.3086298,95.2642164 14.3915384,95.2642164 L38.352411,95.2642164 C39.4353196,95.2642164 40.3134914,94.3862407 40.3134914,93.303136 L40.3134914,63.3319442 L59.6862202,63.3319442 L59.6862202,93.303136 C59.6862202,94.3862407 60.5641959,95.2642164 61.6473006,95.2642164 L85.607977,95.2642164 C86.6910817,95.2642164 87.5690574,94.3862407 87.5690574,93.303136 L87.5690574,51.9947423 L98.0386773,51.9947423 C98.851349,51.9947423 99.5798904,51.4936863 99.8703264,50.7345521 C100.160762,49.975614 99.9528879,49.1160724 99.3478946,48.5736376"/></g></g><text x="0" y="115" fill="#000000" font-size="5px" font-weight="bold" font-family="'Helvetica Neue', Helvetica, Arial-Unicode, Arial, Sans-serif">Created by AomAm</text><text x="0" y="120" fill="#000000" font-size="5px" font-weight="bold" font-family="'Helvetica Neue', Helvetica, Arial-Unicode, Arial, Sans-serif">from the Noun Project</text></svg>