<svg xmlns="http://www.w3.org/2000/svg" xmlns:xlink="http://www.w3.org/1999/xlink" version="1.1" x="0px" y="0px" viewBox="0 0 100 125" enable-background="new 0 0 100 100" xml:space="preserve"><g><path d="M54.283,94.359c-0.001,0-0.001,0-0.002,0c-18.437-0.001-35.555-12.905-43.61-32.877C2.798,41.969,9.587,26.069,12.87,20.14   c4.262-7.697,10.222-13.067,15.553-14.016c1.806-0.32,3.492-0.483,5.012-0.483c8.783,0,13.677,5.425,15.402,17.071   c1.862,12.57,7.606,16.619,17.556,19.691c1.167,0.36,2.371,0.535,3.682,0.535c2.149,0,4.246-0.475,6.274-0.936   c1.955-0.443,3.803-0.861,5.634-0.861c3.688,0,6.463,1.815,8.729,5.715c2.576,4.43,2.98,10.553,1.141,17.241   c-2.94,10.687-10.799,20.457-21.02,26.135C65.974,92.933,60.25,94.359,54.283,94.359z M33.435,7.641   c-1.402,0-2.971,0.152-4.662,0.452c-4.68,0.832-10.235,5.941-14.152,13.016c-3.146,5.68-9.645,20.91-2.096,39.626   c9.416,23.342,28.379,31.625,41.757,31.625c0.001,0,0.002,0,0.002,0c5.628,0,11.015-1.34,15.579-3.875   c9.761-5.423,17.261-14.738,20.062-24.918c1.697-6.166,1.362-11.743-0.94-15.705c-2.419-4.159-4.896-4.72-7.001-4.72   c-1.607,0-3.349,0.395-5.191,0.813c-2.136,0.484-4.344,0.984-6.717,0.984c-1.514,0-2.911-0.204-4.271-0.624   c-10.479-3.236-16.937-7.761-18.944-21.31C45.263,12.235,41.248,7.641,33.435,7.641z"/></g><g><path d="M35.718,33.739c-3.485,0-7.195-3.143-9.23-7.817c-1.172-2.69-1.615-5.522-1.25-7.974c0.393-2.623,1.656-4.523,3.563-5.353   c0.652-0.284,1.358-0.429,2.096-0.429c3.486,0,7.197,3.141,9.232,7.815c2.528,5.808,1.514,11.661-2.311,13.327   C37.163,33.594,36.456,33.739,35.718,33.739z M30.896,14.167c-0.461,0-0.897,0.088-1.298,0.263   c-1.25,0.544-2.097,1.898-2.382,3.813c-0.312,2.085,0.081,4.529,1.105,6.881c1.668,3.832,4.779,6.615,7.396,6.615   c0.463,0,0.9-0.09,1.301-0.264c2.703-1.178,3.287-6.074,1.275-10.695C36.626,16.948,33.515,14.167,30.896,14.167z"/></g><g><path d="M19.682,47.744c-3.722,0-6.75-3.028-6.75-6.75s3.028-6.751,6.75-6.751c3.723,0,6.751,3.029,6.751,6.751   S23.404,47.744,19.682,47.744z M19.682,36.243c-2.619,0-4.75,2.131-4.75,4.751c0,2.619,2.131,4.75,4.75,4.75   c2.62,0,4.751-2.131,4.751-4.75C24.433,38.374,22.302,36.243,19.682,36.243z"/></g><g><path d="M27.557,69.956c-3.722,0-6.75-3.028-6.75-6.75s3.028-6.75,6.75-6.75c3.723,0,6.751,3.028,6.751,6.75   S31.279,69.956,27.557,69.956z M27.557,58.456c-2.619,0-4.75,2.131-4.75,4.75s2.131,4.75,4.75,4.75c2.62,0,4.751-2.131,4.751-4.75   S30.177,58.456,27.557,58.456z"/></g><g><path d="M44.253,84.955c-3.723,0-6.75-3.028-6.75-6.75c0-3.723,3.027-6.751,6.75-6.751s6.751,3.028,6.751,6.751   C51.004,81.927,47.976,84.955,44.253,84.955z M44.253,73.454c-2.619,0-4.75,2.131-4.75,4.751c0,2.619,2.131,4.75,4.75,4.75   s4.751-2.131,4.751-4.75C49.004,75.585,46.872,73.454,44.253,73.454z"/></g><g><path d="M67.181,83.683c-3.722,0-6.75-3.028-6.75-6.75s3.028-6.75,6.75-6.75c3.723,0,6.751,3.028,6.751,6.75   S70.903,83.683,67.181,83.683z M67.181,72.183c-2.619,0-4.75,2.131-4.75,4.75s2.131,4.75,4.75,4.75c2.62,0,4.751-2.131,4.751-4.75   S69.801,72.183,67.181,72.183z"/></g><g><path d="M78.682,64.206c-3.722,0-6.75-3.028-6.75-6.75c0-3.723,3.028-6.751,6.75-6.751c3.723,0,6.751,3.028,6.751,6.751   C85.433,61.178,82.404,64.206,78.682,64.206z M78.682,52.705c-2.619,0-4.75,2.131-4.75,4.751c0,2.619,2.131,4.75,4.75,4.75   c2.62,0,4.751-2.131,4.751-4.75C83.433,54.836,81.302,52.705,78.682,52.705z"/></g><text x="0" y="115" fill="#000000" font-size="5px" font-weight="bold" font-family="'Helvetica Neue', Helvetica, Arial-Unicode, Arial, Sans-serif">Created by Bakunetsu Kaito</text><text x="0" y="120" fill="#000000" font-size="5px" font-weight="bold" font-family="'Helvetica Neue', Helvetica, Arial-Unicode, Arial, Sans-serif">from the Noun Project</text></svg>